<svg width="10" height="10" viewBox="0 0 10 10" fill="none" xmlns="http://www.w3.org/2000/svg">
<path d="M0.21967 8.21967C-0.0732233 8.51256 -0.0732233 8.98744 0.21967 9.28033C0.512563 9.57322 0.987437 9.57322 1.28033 9.28033L0.75 8.75L0.21967 8.21967ZM9.5 0.750001C9.5 0.335788 9.16421 1.10029e-06 8.75 1.2478e-06L2 8.26335e-07C1.58579 8.26335e-07 1.25 0.335787 1.25 0.750001C1.25 1.16421 1.58579 1.5 2 1.5H8V7.5C8 7.91421 8.33579 8.25 8.75 8.25C9.16421 8.25 9.5 7.91421 9.5 7.5L9.5 0.750001ZM0.75 8.75L1.28033 9.28033L9.28033 1.28033L8.75 0.750001L8.21967 0.219671L0.21967 8.21967L0.75 8.75Z" fill="#1F1E1E"/>
</svg>
